<svg width="167" height="182" viewBox="0 0 167 182" fill="none" xmlns="http://www.w3.org/2000/svg">
<g clip-path="url(#clip0_178_2914)">
<mask id="mask0_178_2914" style="mask-type:luminance" maskUnits="userSpaceOnUse" x="0" y="0" width="167" height="182">
<path d="M167 0H0V181.489H167V0Z" fill="white"/>
</mask>
<g mask="url(#mask0_178_2914)">
<mask id="mask1_178_2914" style="mask-type:luminance" maskUnits="userSpaceOnUse" x="63" y="77" width="79" height="91">
<path d="M63.6133 86.4463L130.94 77.895L141.221 158.838L73.8941 167.39L63.6133 86.4463Z" fill="white"/>
</mask>
<g mask="url(#mask1_178_2914)">
<mask id="mask2_178_2914" style="mask-type:luminance" maskUnits="userSpaceOnUse" x="70" y="83" width="65" height="79">
<path d="M70.21 85.6854L131.93 83.2632L134.92 159.46L73.2004 161.882L70.21 85.6854Z" fill="white"/>
</mask>
<g mask="url(#mask2_178_2914)">
<path d="M100.092 160.961L129.256 159.816C132.294 159.697 135.053 157.199 134.702 154.227L128.67 103.101C128.306 100.017 126.387 97.8147 123.177 97.9407C81.2519 99.5861 98.2651 98.9184 80.6446 99.61C77.4214 99.7364 75.6773 101.982 75.5207 105.187L73.0118 156.648C72.866 159.64 75.7873 161.914 78.8252 161.795L100.092 160.961Z" fill="#B35067"/>
<path d="M87.6076 90.9772L83.3542 91.1442L84.3141 115.601L88.5674 115.434L87.6076 90.9772ZM89.3599 89.1158L89.1961 84.9403L114.107 83.9626C115.719 83.8993 117.289 84.4673 118.472 85.5411C119.656 86.615 120.356 88.1069 120.418 89.6888L121.378 114.147L117.125 114.313L116.165 89.8557L116.134 89.8569C116.116 89.3906 115.909 88.9507 115.56 88.634C115.211 88.3172 114.748 88.1492 114.272 88.1679L114.271 88.1382L89.3599 89.1158ZM84.9679 86.8561C83.8726 88.0194 83.2921 89.5616 83.3542 91.1434L87.638 90.9753C87.6197 90.509 87.7911 90.0543 88.1142 89.7112C88.4373 89.368 88.8856 89.1642 89.3611 89.1456L89.1961 84.9403C87.5845 85.0035 86.0631 85.6928 84.9679 86.8561Z" fill="#FA9FA4"/>
</g>
</g>
<mask id="mask3_178_2914" style="mask-type:luminance" maskUnits="userSpaceOnUse" x="44" y="19" width="40" height="46">
<path d="M49.9111 19.893L83.1962 24.1206L78.1039 64.214L44.8188 59.9864L49.9111 19.893Z" fill="white"/>
</mask>
<g mask="url(#mask3_178_2914)">
<mask id="mask4_178_2914" style="mask-type:luminance" maskUnits="userSpaceOnUse" x="46" y="21" width="35" height="42">
<path d="M49.6953 21.6458L80.8744 23.9592L77.9967 62.743L46.8176 60.4295L49.6953 21.6458Z" fill="white"/>
</mask>
<g mask="url(#mask4_178_2914)">
<path d="M60.3808 61.6966L75.1141 62.7898C76.6487 62.9036 78.1796 61.7899 78.1748 60.2565L78.0907 33.8743C78.0857 32.2834 77.248 31.0513 75.6267 30.931C54.4477 29.3596 63.0418 29.9973 54.1405 29.3368C52.5123 29.216 51.5051 30.2592 51.2417 31.8821L47.0109 57.9441C46.7647 59.459 48.1031 60.7856 49.6377 60.8994L60.3808 61.6966Z" fill="#FA9FA4"/>
<path d="M74.7146 26.5707L72.5655 26.4112L71.6372 38.9217L73.7863 39.0811L74.7146 26.5707ZM58.1394 25.3409L55.9904 25.1814L55.0622 37.6911L57.2112 37.8505L58.1394 25.3409ZM74.7146 26.5707C74.7746 25.7616 74.5083 24.9611 73.975 24.3465C73.4418 23.7319 72.6847 23.3515 71.871 23.2912L71.8709 23.2919L59.2867 22.3582C58.473 22.2978 57.6682 22.5615 57.0501 23.0907C56.432 23.6199 56.0504 24.3723 55.9904 25.1814L58.1546 25.342C58.1724 25.1032 58.2852 24.8814 58.4673 24.7252C58.6494 24.5689 58.8868 24.4917 59.1271 24.5096L59.1282 24.4943L71.7124 25.4281L71.7114 25.4425C71.9517 25.4604 72.175 25.5725 72.3321 25.7539C72.4892 25.9353 72.568 26.1713 72.5503 26.4101L74.7146 26.5707Z" fill="#771E43"/>
</g>
</g>
<mask id="mask5_178_2914" style="mask-type:luminance" maskUnits="userSpaceOnUse" x="-1" y="-1" width="168" height="183">
<path d="M-0.135742 -0.0914917H166.864V181.397H-0.135742V-0.0914917Z" fill="white"/>
</mask>
<g mask="url(#mask5_178_2914)">
<path d="M7.07634 102.346L2.18013 104.364L-0.0993419 98.8349L4.79688 96.8165L7.07634 102.346Z" fill="#D77482"/>
<path d="M121.011 36.1082L117.086 37.4754C117.086 37.4754 118.389 39.5553 118.911 41.023C119.462 42.5675 119.585 44.8588 119.585 44.8588L123.679 43.7682C123.679 43.7682 123.242 41.4161 122.751 39.97C122.218 38.404 121.011 36.1082 121.011 36.1082Z" fill="#D77482"/>
<path d="M31.6568 83.7809L35.24 94.0686L29.9679 95.9049L26.3848 85.6171L31.6568 83.7809Z" fill="#D77482"/>
<path d="M45.5196 9.73243L43.3281 12.4957C43.3281 12.4957 46.0057 14.1891 47.5935 15.4464C49.1957 16.7151 51.4752 18.957 51.4752 18.957L53.6667 16.1937C53.6667 16.1937 51.4755 14.0539 49.9469 12.83C48.2999 11.5111 45.5196 9.73243 45.5196 9.73243Z" fill="#D77482"/>
<path d="M16.1689 27.6902L19.3121 35.421L16.5261 36.5538L13.3828 28.8229L16.1689 27.6902Z" fill="#B35067"/>
<path d="M159.722 109.782L155.952 113.376C155.952 113.376 157.971 117.738 160.39 119.348C161.265 119.93 162.796 120.554 162.796 120.554L166.565 116.961C166.565 116.961 164.37 115.588 163.179 114.452C161.537 112.885 159.722 109.782 159.722 109.782Z" fill="#B35067"/>
<path d="M12.2417 61.6784L15.4332 70.2163L11.4425 71.708L8.25098 63.1702L12.2417 61.6784Z" fill="#FA9FA4"/>
<path d="M155.107 86.3798L164.292 82.9062L166.147 87.8113L156.962 91.2849L155.107 86.3798Z" fill="#FA9FA4"/>
<path d="M138.718 138.743L141.703 142.458C141.703 142.458 144.331 140.77 145.509 139.165C146.624 137.645 147.449 134.821 147.449 134.821L143.406 132.719C143.406 132.719 142.294 134.848 141.346 136.054C140.435 137.215 138.718 138.743 138.718 138.743Z" fill="#FA9FA4"/>
<path d="M112.455 162.195L118.518 159.902L119.996 163.809L113.933 166.102L112.455 162.195Z" fill="#FA9FA4"/>
<path d="M96.4634 20.8261L93.2068 27.9651L89.9543 26.4814L93.2109 19.3424L96.4634 20.8261Z" fill="#B35067"/>
<path d="M104.59 56.8921L100.729 55.5676C100.729 55.5676 100.281 58.0621 99.489 59.7409C98.7648 61.2771 97.1225 63.1262 97.1225 63.1262L100.851 65.0884C100.851 65.0884 102.538 63.1762 103.259 61.733C104.135 59.9785 104.59 56.8921 104.59 56.8921Z" fill="#FA9FA4"/>
<path d="M21.7775 139.621L18.7091 140.326C18.7091 140.326 18.9189 142.48 19.3922 143.765C19.8647 145.048 21.1008 146.82 21.1008 146.82L23.933 145.402C23.933 145.402 22.9381 143.947 22.4697 142.692C21.9851 141.394 21.7775 139.621 21.7775 139.621Z" fill="#FA9FA4"/>
<path d="M129.513 64.7815L126.971 67.7056C126.971 67.7056 128.146 68.8437 129.197 70.4311C130.347 72.1665 130.633 74.2845 130.633 74.2845L134.66 73.0459C134.66 73.0459 134.065 69.8491 133.065 68.2339C132.045 66.5857 129.513 64.7815 129.513 64.7815Z" fill="#771E43"/>
<path d="M36.9222 48.3306L39.024 54.038L36.0501 55.1332L33.9482 49.4258L36.9222 48.3306Z" fill="#771E43"/>
<path d="M32.7863 172.059C31.7952 172.422 30.0997 172.758 30.0997 172.758L31.3985 175.925C31.3985 175.925 33.1689 175.569 34.2405 175.149C35.1062 174.81 36.3739 174.093 36.3739 174.093L34.7196 170.96C34.7196 170.96 33.7868 171.693 32.7863 172.059Z" fill="#771E43"/>
<path d="M43.9237 113.271L39.8321 114.609C39.8321 114.609 40.1716 118.638 41.4896 120.737C42.0951 121.701 43.3564 122.974 43.3564 122.974L46.7974 120.977C46.7974 120.977 45.657 119.247 44.9838 118.148C43.8994 116.377 43.9237 113.271 43.9237 113.271Z" fill="#B35067"/>
<path d="M92.1006 111.532L93.2241 114.199L91.8433 114.781L90.7197 112.114L92.1006 111.532Z" fill="#B35067"/>
</g>
</g>
</g>
<defs>
<clipPath id="clip0_178_2914">
<rect width="167" height="181.489" fill="white"/>
</clipPath>
</defs>
</svg>
