<svg width="20" height="20" viewBox="0 0 20 20" fill="none" xmlns="http://www.w3.org/2000/svg">
<path d="M14.675 8.99167H17.0833C17.2655 8.99167 17.4167 9.14281 17.4167 9.32501V13.6917C17.4167 15.0565 16.9443 16.0797 16.216 16.7637C15.4828 17.4523 14.4512 17.8333 13.275 17.8333H6.72501C5.54879 17.8333 4.51719 17.4523 3.78398 16.7637C3.05571 16.0797 2.58334 15.0565 2.58334 13.6917V6.30834C2.58334 4.94349 3.05571 3.92033 3.78398 3.23634C4.51719 2.5477 5.54879 2.16667 6.72501 2.16667H10.2583C10.4405 2.16667 10.5917 2.31781 10.5917 2.50001V4.90834C10.5917 7.15948 12.4239 8.99167 14.675 8.99167Z" stroke="#06ADFE"/>
</svg>
