<svg width="39" height="30" viewBox="0 0 39 30" fill="none" xmlns="http://www.w3.org/2000/svg">
<path d="M38.8711 0.335938C38.0508 3.34375 37.2305 6.60547 36.4102 10.1211C35.6289 13.5977 34.9062 17.0352 34.2422 20.4336C33.5781 23.832 33.0508 26.918 32.6602 29.6914H22.2891L21.4102 28.4023C22.1133 25.5508 23.0117 22.5039 24.1055 19.2617C25.2383 16.0195 26.4492 12.7773 27.7383 9.53516C29.0664 6.25391 30.3945 3.1875 31.7227 0.335938H38.8711ZM17.3086 0.335938C16.4883 3.34375 15.668 6.60547 14.8477 10.1211C14.0664 13.5977 13.3438 17.0352 12.6797 20.4336C12.0156 23.832 11.4883 26.918 11.0977 29.6914H0.785156L0.0820312 28.4023C0.785156 25.5508 1.66406 22.5039 2.71875 19.2617C3.8125 16.0195 5.00391 12.7773 6.29297 9.53516C7.58203 6.25391 8.89062 3.1875 10.2188 0.335938H17.3086Z" fill="black"/>
</svg>
