<svg width="20" height="20" viewBox="0 0 20 20" fill="none" xmlns="http://www.w3.org/2000/svg">
<path d="M19.49 5.80863V5.81V14.19C19.49 15.9106 18.9791 17.2238 18.0964 18.1064C17.2138 18.9891 15.9006 19.5 14.18 19.5H5.81C4.08945 19.5 2.77634 18.9891 1.89377 18.1054C1.01114 17.2217 0.5 15.9059 0.5 14.18V5.81C0.5 4.08944 1.01093 2.77618 1.89355 1.89355C2.77618 1.01093 4.08944 0.5 5.81 0.5H14.19C15.9107 0.5 17.2237 1.01097 18.105 1.89333C18.9861 2.77559 19.4947 4.08838 19.49 5.80863ZM7.78043 16.635L7.78043 16.635L7.78417 16.6345C8.05338 16.5941 8.34332 16.4864 8.59784 16.357C8.85253 16.2275 9.11018 16.0568 9.30305 15.8641C9.30322 15.8639 9.30338 15.8637 9.30355 15.8636L13.7824 11.4147L14.3585 10.8425L13.5881 10.5857C13.4054 10.5247 13.2181 10.4452 12.9916 10.3468C12.7728 10.2374 12.5746 10.1377 12.3972 10.0313L12.3858 10.0244L12.3739 10.0181C12.237 9.94561 12.1007 9.853 11.95 9.74L11.9424 9.73431L11.9346 9.7289C11.8218 9.65082 11.6865 9.54291 11.5323 9.41957L11.5065 9.39885C11.5016 9.39412 11.4957 9.38836 11.4886 9.38133L11.4436 9.33645L11.4282 9.3211L11.4116 9.30715C11.1807 9.11322 10.9124 8.85391 10.6841 8.57991L10.6696 8.56248L10.6599 8.55283C10.6575 8.54996 10.6538 8.54539 10.6487 8.53893C10.6359 8.52268 10.6182 8.49926 10.5969 8.46938L10.5814 8.44772L10.5637 8.42782C10.4962 8.35183 10.3828 8.21211 10.2898 8.06838L10.2804 8.05385L10.27 8.04C10.1895 7.9326 10.0902 7.78812 10.001 7.63649L10.001 7.63648L9.99875 7.63275C9.89185 7.45459 9.79053 7.25303 9.69302 7.04836C9.59149 6.82652 9.51711 6.63164 9.43724 6.422L9.16239 5.70051L8.61645 6.24645L4.15918 10.7037C3.95932 10.8979 3.78768 11.1545 3.65879 11.4094C3.529 11.6661 3.42505 11.9557 3.38527 12.2276L3.38499 12.2296L3.03527 14.6876C2.93625 15.3475 3.10714 15.9942 3.56645 16.4536C3.94395 16.8311 4.45817 17.01 4.98 17.01C5.09808 17.01 5.21175 16.9973 5.29617 16.9879L5.30522 16.9869L5.31284 16.9861L5.32043 16.985L7.78043 16.635ZM14.8036 10.3736L14.8055 10.3716L15.7236 9.44355C15.7238 9.44326 15.7241 9.44298 15.7244 9.44269C16.5327 8.63411 16.9974 7.79726 17.01 6.89694L17.01 6.89694V6.89C17.01 5.94903 16.5464 5.09934 15.7336 4.28645C14.9383 3.49119 14.0845 3.01593 13.1638 3.01126C12.2417 3.00658 11.3785 3.47437 10.5664 4.28645L9.64519 5.2077C9.41309 5.42224 9.35664 5.7413 9.42762 6.00156L9.42758 6.00157L9.42924 6.00736C10.0549 8.19706 11.7963 9.94309 13.9834 10.5752C14.058 10.6009 14.1212 10.6056 14.141 10.6071L14.1429 10.6073C14.1791 10.6101 14.2138 10.61 14.2275 10.61L14.23 10.61C14.4337 10.61 14.6437 10.5335 14.8036 10.3736Z" stroke="#52525B"/>
</svg>
