<svg xmlns="http://www.w3.org/2000/svg" width="full" height="full" viewBox="0 0 64 70" fill="none"><path d="M2.059 1.03A1.03 1.03 0 1 1 0 1.03a1.03 1.03 0 0 1 2.059 0m6.176 0a1.03 1.03 0 1 1-2.059 0 1.03 1.03 0 0 1 2.06 0m6.176 0a1.03 1.03 0 1 1-2.059 0 1.03 1.03 0 0 1 2.059 0m6.176 0a1.03 1.03 0 1 1-2.059 0 1.03 1.03 0 0 1 2.06 0m6.176 0a1.03 1.03 0 1 1-2.06 0 1.03 1.03 0 0 1 2.06 0m6.176 0a1.03 1.03 0 1 1-2.059 0 1.03 1.03 0 0 1 2.06 0m6.176 0a1.03 1.03 0 1 1-2.06 0 1.03 1.03 0 0 1 2.06 0m6.176 0a1.03 1.03 0 1 1-2.059 0 1.03 1.03 0 0 1 2.06 0m6.175 0a1.03 1.03 0 1 1-2.058 0 1.03 1.03 0 0 1 2.059 0m6.176 0a1.03 1.03 0 1 1-2.059 0 1.03 1.03 0 0 1 2.06 0m6.176 0a1.03 1.03 0 1 1-2.06 0 1.03 1.03 0 0 1 2.06 0M2.059 7.206a1.03 1.03 0 1 1-2.059 0 1.03 1.03 0 0 1 2.059 0m6.176 0a1.03 1.03 0 1 1-2.059 0 1.03 1.03 0 0 1 2.06 0m6.176 0a1.03 1.03 0 1 1-2.059 0 1.03 1.03 0 0 1 2.059 0m6.176 0a1.03 1.03 0 1 1-2.059 0 1.03 1.03 0 0 1 2.06 0m6.176 0a1.03 1.03 0 1 1-2.06 0 1.03 1.03 0 0 1 2.06 0m6.176 0a1.03 1.03 0 1 1-2.059 0 1.03 1.03 0 0 1 2.06 0m6.176 0a1.03 1.03 0 1 1-2.06 0 1.03 1.03 0 0 1 2.06 0m6.176 0a1.03 1.03 0 1 1-2.059 0 1.03 1.03 0 0 1 2.06 0m6.175 0a1.03 1.03 0 1 1-2.058 0 1.03 1.03 0 0 1 2.059 0m6.176 0a1.03 1.03 0 1 1-2.059 0 1.03 1.03 0 0 1 2.06 0m6.176 0a1.03 1.03 0 1 1-2.06 0 1.03 1.03 0 0 1 2.06 0M2.059 13.382a1.03 1.03 0 1 1-2.059 0 1.03 1.03 0 0 1 2.059 0m6.176 0a1.03 1.03 0 1 1-2.059 0 1.03 1.03 0 0 1 2.06 0m6.176 0a1.03 1.03 0 1 1-2.06 0 1.03 1.03 0 0 1 2.06 0m6.176 0a1.03 1.03 0 1 1-2.059 0 1.03 1.03 0 0 1 2.06 0m6.176 0a1.03 1.03 0 1 1-2.06 0 1.03 1.03 0 0 1 2.06 0m6.176 0a1.03 1.03 0 1 1-2.059 0 1.03 1.03 0 0 1 2.06 0m6.176 0a1.03 1.03 0 1 1-2.06 0 1.03 1.03 0 0 1 2.06 0m6.176 0a1.03 1.03 0 1 1-2.059 0 1.03 1.03 0 0 1 2.06 0m6.175 0a1.03 1.03 0 1 1-2.058 0 1.03 1.03 0 0 1 2.059 0m6.176 0a1.03 1.03 0 1 1-2.059 0 1.03 1.03 0 0 1 2.06 0m6.176 0a1.03 1.03 0 1 1-2.06 0 1.03 1.03 0 0 1 2.06 0M2.059 19.559a1.03 1.03 0 1 1-2.059 0 1.03 1.03 0 0 1 2.059 0m6.176 0a1.03 1.03 0 1 1-2.058 0 1.03 1.03 0 0 1 2.058 0m6.177 0a1.03 1.03 0 1 1-2.059 0 1.03 1.03 0 0 1 2.059 0m6.176 0a1.03 1.03 0 1 1-2.058 0 1.03 1.03 0 0 1 2.058 0m6.177 0a1.03 1.03 0 1 1-2.059 0 1.03 1.03 0 0 1 2.059 0m6.176 0a1.03 1.03 0 1 1-2.059 0 1.03 1.03 0 0 1 2.06 0m6.176 0a1.03 1.03 0 1 1-2.059 0 1.03 1.03 0 0 1 2.059 0m6.176 0a1.03 1.03 0 1 1-2.059 0 1.03 1.03 0 0 1 2.06 0m6.175 0a1.03 1.03 0 1 1-2.058 0 1.03 1.03 0 0 1 2.059 0m6.176 0a1.03 1.03 0 1 1-2.059 0 1.03 1.03 0 0 1 2.06 0m6.176 0a1.03 1.03 0 1 1-2.06 0 1.03 1.03 0 0 1 2.06 0M2.059 25.735a1.03 1.03 0 1 1-2.059 0 1.03 1.03 0 0 1 2.059 0m6.176 0a1.03 1.03 0 1 1-2.059 0 1.03 1.03 0 0 1 2.06 0m6.176 0a1.03 1.03 0 1 1-2.06 0 1.03 1.03 0 0 1 2.06 0m6.176 0a1.03 1.03 0 1 1-2.059 0 1.03 1.03 0 0 1 2.06 0m6.176 0a1.03 1.03 0 1 1-2.06 0 1.03 1.03 0 0 1 2.06 0m6.176 0a1.03 1.03 0 1 1-2.059 0 1.03 1.03 0 0 1 2.06 0m6.176 0a1.03 1.03 0 1 1-2.06 0 1.03 1.03 0 0 1 2.06 0m6.176 0a1.03 1.03 0 1 1-2.059 0 1.03 1.03 0 0 1 2.06 0m6.175 0a1.03 1.03 0 1 1-2.058 0 1.03 1.03 0 0 1 2.059 0m6.176 0a1.03 1.03 0 1 1-2.059 0 1.03 1.03 0 0 1 2.06 0m6.176 0a1.03 1.03 0 1 1-2.06 0 1.03 1.03 0 0 1 2.06 0M2.059 31.912a1.03 1.03 0 1 1-2.059 0 1.03 1.03 0 0 1 2.059 0m6.176 0a1.03 1.03 0 1 1-2.059 0 1.03 1.03 0 0 1 2.06 0m6.176 0a1.03 1.03 0 1 1-2.06 0 1.03 1.03 0 0 1 2.06 0m6.176 0a1.03 1.03 0 1 1-2.059 0 1.03 1.03 0 0 1 2.06 0m6.176 0a1.03 1.03 0 1 1-2.06 0 1.03 1.03 0 0 1 2.06 0m6.176 0a1.03 1.03 0 1 1-2.059 0 1.03 1.03 0 0 1 2.06 0m6.176 0a1.03 1.03 0 1 1-2.06 0 1.03 1.03 0 0 1 2.06 0m6.176 0a1.03 1.03 0 1 1-2.059 0 1.03 1.03 0 0 1 2.06 0m6.175 0a1.03 1.03 0 1 1-2.058 0 1.03 1.03 0 0 1 2.059 0m6.176 0a1.03 1.03 0 1 1-2.059 0 1.03 1.03 0 0 1 2.06 0m6.176 0a1.03 1.03 0 1 1-2.06 0 1.03 1.03 0 0 1 2.06 0M2.059 38.088a1.03 1.03 0 1 1-2.059 0 1.03 1.03 0 0 1 2.059 0m6.176 0a1.03 1.03 0 1 1-2.058 0 1.03 1.03 0 0 1 2.058 0m6.177 0a1.03 1.03 0 1 1-2.059 0 1.03 1.03 0 0 1 2.059 0m6.176 0a1.03 1.03 0 1 1-2.058 0 1.03 1.03 0 0 1 2.058 0m6.177 0a1.03 1.03 0 1 1-2.059 0 1.03 1.03 0 0 1 2.059 0m6.176 0a1.03 1.03 0 1 1-2.059 0 1.03 1.03 0 0 1 2.06 0m6.176 0a1.03 1.03 0 1 1-2.059 0 1.03 1.03 0 0 1 2.059 0m6.176 0a1.03 1.03 0 1 1-2.059 0 1.03 1.03 0 0 1 2.06 0m6.175 0a1.03 1.03 0 1 1-2.058 0 1.03 1.03 0 0 1 2.059 0m6.176 0a1.03 1.03 0 1 1-2.059 0 1.03 1.03 0 0 1 2.06 0m6.176 0a1.03 1.03 0 1 1-2.06 0 1.03 1.03 0 0 1 2.06 0M2.059 44.265a1.03 1.03 0 1 1-2.059 0 1.03 1.03 0 0 1 2.059 0m6.176 0a1.03 1.03 0 1 1-2.059 0 1.03 1.03 0 0 1 2.06 0m6.176 0a1.03 1.03 0 1 1-2.06 0 1.03 1.03 0 0 1 2.06 0m6.176 0a1.03 1.03 0 1 1-2.059 0 1.03 1.03 0 0 1 2.06 0m6.176 0a1.03 1.03 0 1 1-2.06 0 1.03 1.03 0 0 1 2.06 0m6.176 0a1.03 1.03 0 1 1-2.059 0 1.03 1.03 0 0 1 2.06 0m6.176 0a1.03 1.03 0 1 1-2.06 0 1.03 1.03 0 0 1 2.06 0m6.176 0a1.03 1.03 0 1 1-2.059 0 1.03 1.03 0 0 1 2.06 0m6.175 0a1.03 1.03 0 1 1-2.058 0 1.03 1.03 0 0 1 2.059 0m6.176 0a1.03 1.03 0 1 1-2.059 0 1.03 1.03 0 0 1 2.06 0m6.176 0a1.03 1.03 0 1 1-2.06 0 1.03 1.03 0 0 1 2.06 0M2.059 50.441a1.03 1.03 0 1 1-2.059 0 1.03 1.03 0 0 1 2.059 0m6.176 0a1.03 1.03 0 1 1-2.059 0 1.03 1.03 0 0 1 2.06 0m6.176 0a1.03 1.03 0 1 1-2.06 0 1.03 1.03 0 0 1 2.06 0m6.176 0a1.03 1.03 0 1 1-2.059 0 1.03 1.03 0 0 1 2.06 0m6.176 0a1.03 1.03 0 1 1-2.06 0 1.03 1.03 0 0 1 2.06 0m6.176 0a1.03 1.03 0 1 1-2.059 0 1.03 1.03 0 0 1 2.06 0m6.176 0a1.03 1.03 0 1 1-2.06 0 1.03 1.03 0 0 1 2.06 0m6.176 0a1.03 1.03 0 1 1-2.059 0 1.03 1.03 0 0 1 2.06 0m6.175 0a1.03 1.03 0 1 1-2.058 0 1.03 1.03 0 0 1 2.059 0m6.176 0a1.03 1.03 0 1 1-2.059 0 1.03 1.03 0 0 1 2.06 0m6.176 0a1.03 1.03 0 1 1-2.06 0 1.03 1.03 0 0 1 2.06 0M2.059 56.618a1.03 1.03 0 1 1-2.06 0 1.03 1.03 0 0 1 2.06 0m6.176 0a1.03 1.03 0 1 1-2.059 0 1.03 1.03 0 0 1 2.06 0m6.176 0a1.03 1.03 0 1 1-2.06 0 1.03 1.03 0 0 1 2.06 0m6.176 0a1.03 1.03 0 1 1-2.059 0 1.03 1.03 0 0 1 2.06 0m6.176 0a1.03 1.03 0 1 1-2.06 0 1.03 1.03 0 0 1 2.06 0m6.176 0a1.03 1.03 0 1 1-2.059 0 1.03 1.03 0 0 1 2.06 0m6.176 0a1.03 1.03 0 1 1-2.06 0 1.03 1.03 0 0 1 2.06 0m6.176 0a1.03 1.03 0 1 1-2.059 0 1.03 1.03 0 0 1 2.06 0m6.175 0a1.03 1.03 0 1 1-2.058 0 1.03 1.03 0 0 1 2.059 0m6.176 0a1.03 1.03 0 1 1-2.059 0 1.03 1.03 0 0 1 2.06 0m6.176 0a1.03 1.03 0 1 1-2.06 0 1.03 1.03 0 0 1 2.06 0M2.059 62.794a1.03 1.03 0 1 1-2.059 0 1.03 1.03 0 0 1 2.059 0m6.176 0a1.03 1.03 0 1 1-2.059 0 1.03 1.03 0 0 1 2.06 0m6.176 0a1.03 1.03 0 1 1-2.06 0 1.03 1.03 0 0 1 2.06 0m6.176 0a1.03 1.03 0 1 1-2.059 0 1.03 1.03 0 0 1 2.06 0m6.176 0a1.03 1.03 0 1 1-2.06 0 1.03 1.03 0 0 1 2.06 0m6.176 0a1.03 1.03 0 1 1-2.059 0 1.03 1.03 0 0 1 2.06 0m6.176 0a1.03 1.03 0 1 1-2.06 0 1.03 1.03 0 0 1 2.06 0m6.176 0a1.03 1.03 0 1 1-2.059 0 1.03 1.03 0 0 1 2.06 0m6.175 0a1.03 1.03 0 1 1-2.058 0 1.03 1.03 0 0 1 2.059 0m6.176 0a1.03 1.03 0 1 1-2.059 0 1.03 1.03 0 0 1 2.06 0m6.176 0a1.03 1.03 0 1 1-2.06 0 1.03 1.03 0 0 1 2.06 0M2.059 68.97a1.03 1.03 0 1 1-2.059 0 1.03 1.03 0 0 1 2.059 0m6.176 0a1.03 1.03 0 1 1-2.059 0 1.03 1.03 0 0 1 2.06 0m6.176 0a1.03 1.03 0 1 1-2.06 0 1.03 1.03 0 0 1 2.06 0m6.176 0a1.03 1.03 0 1 1-2.059 0 1.03 1.03 0 0 1 2.06 0m6.176 0a1.03 1.03 0 1 1-2.06 0 1.03 1.03 0 0 1 2.06 0m6.176 0a1.03 1.03 0 1 1-2.059 0 1.03 1.03 0 0 1 2.06 0m6.176 0a1.03 1.03 0 1 1-2.06 0 1.03 1.03 0 0 1 2.06 0m6.176 0a1.03 1.03 0 1 1-2.059 0 1.03 1.03 0 0 1 2.06 0m6.175 0a1.03 1.03 0 1 1-2.058 0 1.03 1.03 0 0 1 2.059 0m6.176 0a1.03 1.03 0 1 1-2.059 0 1.03 1.03 0 0 1 2.06 0m6.176 0a1.03 1.03 0 1 1-2.06 0 1.03 1.03 0 0 1 2.06 0" fill="#E9BFD1"/></svg>