<svg xmlns="http://www.w3.org/2000/svg" width="full" height="full" viewBox="0 0 63 94" fill="none"><path d="M0 5.323v2.895L14.233 0H9.22zM22.788 0 0 13.157v2.894L27.801 0zm13.568 0L0 20.99v2.894L41.369 0zm13.567 0L0 28.823v2.895L54.937 0zm12.744.476L0 36.656v2.895l62.667-36.18zm0 7.834L0 44.49v2.894l62.667-36.18zm0 7.833L0 52.323v2.895l62.667-36.181zm0 7.833L0 60.156v2.895l62.667-36.18zm0 7.834L0 67.99v2.894l62.667-36.18zm0 7.833L0 75.823v2.895l62.667-36.181zm0 7.833L0 83.656v2.895l62.667-36.18zm0 7.834L0 91.49V94h.666l62-35.796zm0 7.833L9.22 94h5.013l48.434-27.963zm0 7.833L22.787 94h5.014l34.866-20.13zm0 7.834L36.355 94h5.014l21.298-12.296zm0 7.833L49.923 94h5.014l7.73-4.463z" fill="#E9BFD1"/></svg>